# xmcd
#
# Track frame offsets:
#	150
#	15411
#	24646
#	42816
#	61653
#
# Disc length: 1099 seconds
#
# Revision: 1
# Processed by: cddbd v1.5.2PL0 Copyright (c) Steve Scherf et al.
# Submitted via: audiograbber 1.83.01
#
DISCID=2e044905
DTITLE=Eagles - Lost Radio Waves
DYEAR=1974
DGENRE=Country
TTITLE0=James Dean
TTITLE1=Blackberry Blossom
TTITLE2=Midnight Flyer
TTITLE3=Already Gone
TTITLE4=Take It Easy
EXTD=
EXTT0=
EXTT1=
EXTT2=
EXTT3=
EXTT4=
PLAYORDER=
